<?xml version="1.0" encoding="utf-8"?><svg xml:space="preserve" viewBox="0 0 100 100" y="0" x="0" xmlns="http://www.w3.org/2000/svg" id="圖層_1" version="1.1" width="200px" height="200px" xmlns:xlink="http://www.w3.org/1999/xlink" style="width:100%;height:100%;background-size:initial;background-repeat-y:initial;background-repeat-x:initial;background-position-y:initial;background-position-x:initial;background-origin:initial;background-image:initial;background-color:rgb(255, 255, 255);background-clip:initial;background-attachment:initial;animation-play-state:paused" ><g class="ldl-scale" style="transform-origin:50% 50%;transform:rotate(0deg) scale(0.8, 0.8);animation-play-state:paused" ><circle fill="#f8b26a" r="40" cy="50" cx="50" style="fill:rgb(248, 178, 106);animation-play-state:paused" ></circle>
<circle fill="#f5e6c8" r="32.5" cy="50" cx="50" style="fill:rgb(245, 230, 200);animation-play-state:paused" ></circle>
<g style="animation-play-state:paused" ><path fill="#f8b26a" d="M49.803 70.797c-8.079 0-14.408-5.245-14.408-11.941h5.842c0 3.127 3.923 5.769 8.566 5.769 3.474 0 9.355-1.215 9.355-5.769 0-5.492-7.793-5.77-9.355-5.77C41.225 53.086 35 48.064 35 41.144c0-7.143 5.949-11.941 14.803-11.941 8.079 0 14.408 5.245 14.408 11.941h-5.842c0-3.127-3.923-5.769-8.566-5.769-4.134 0-8.961 1.511-8.961 5.769 0 3.788 4.508 5.77 8.961 5.77C59.035 46.914 65 51.602 65 58.856c0 7.143-6.107 11.941-15.197 11.941z" style="fill:rgb(248, 178, 106);animation-play-state:paused" ></path></g>
<g style="animation-play-state:paused" ><path d="M46.589 25h6.405v50h-6.405z" fill="#f8b26a" style="fill:rgb(248, 178, 106);animation-play-state:paused" ></path></g>
<path fill="#f5e169" opacity=".6" d="M50 10c.07 0 .139.005.208.005v79.99c-.069 0-.138.005-.208.005-22.091 0-40-17.909-40-40s17.909-40 40-40z" style="fill:rgb(245, 225, 105);animation-play-state:paused" ></path>
<metadata xmlns:d="https://loading.io/stock/" style="animation-play-state:paused" ><d:name style="animation-play-state:paused" >coin</d:name>
<d:tags style="animation-play-state:paused" >coin,dollar,money,bucks,currency,price,value,quarter,penny,cent</d:tags>
<d:license style="animation-play-state:paused" >by</d:license>
<d:slug style="animation-play-state:paused" >wi8pt</d:slug></metadata></g><!-- generated by https://loading.io/ --></svg>